<?xml version="1.0" standalone="no"?>
<!DOCTYPE svg PUBLIC "-//W3C//DTD SVG 20010904//EN"
 "http://www.w3.org/TR/2001/REC-SVG-20010904/DTD/svg10.dtd">
<svg version="1.0" xmlns="http://www.w3.org/2000/svg"
 width="640.000000pt" height="640.000000pt" viewBox="0 0 640.000000 640.000000"
 preserveAspectRatio="xMidYMid meet">

<g transform="translate(0.000000,640.000000) scale(0.100000,-0.100000)"
fill="#000000" stroke="none">
<path d="M3060 4646 c-315 -66 -546 -300 -606 -613 -52 -274 61 -565 285 -735
78 -59 181 -110 271 -134 89 -25 290 -25 380 0 212 57 394 206 490 401 59 120
74 189 74 335 0 146 -15 215 -75 335 -98 197 -281 347 -489 400 -89 22 -249
28 -330 11z m275 -121 c232 -49 425 -236 485 -471 87 -338 -124 -687 -466
-774 -397 -102 -794 208 -794 620 0 288 201 546 482 620 88 23 198 25 293 5z"/>
<path d="M2490 3021 c-215 -160 -379 -408 -447 -675 -22 -90 -26 -127 -30
-332 -5 -226 -5 -232 16 -253 l21 -21 1150 0 1150 0 21 21 c21 21 21 27 16
253 -4 206 -7 242 -30 328 -64 242 -147 388 -322 563 -68 68 -140 131 -166
145 -45 23 -48 23 -73 7 -40 -26 -35 -69 10 -104 174 -134 267 -242 350 -408
83 -167 105 -266 111 -497 l5 -188 -1071 0 -1071 0 0 154 c0 168 15 280 54
393 62 181 186 363 324 476 121 99 134 114 127 139 -9 29 -33 48 -59 48 -12 0
-50 -22 -86 -49z"/>
</g>
</svg>
